HIERARCHY
ROOT Hips
{
	OFFSET 0.00 0.00 0.00
	CHANNELS 6 Xposition Yposition Zposition Xrotation Yrotation Zrotation
	JOINT LeftUpLeg
	{
		OFFSET 4.29448 0.00000 0.00000
		CHANNELS 3 Xrotation Yrotation Zrotation
		JOINT LeftLeg
		{
			OFFSET 0.00000 -19.20276 0.00000
			CHANNELS 3 Xrotation Yrotation Zrotation
			JOINT LeftFoot
			{
				OFFSET -0.02174 -15.68217 -0.01872
				CHANNELS 3 Xrotation Yrotation Zrotation
				JOINT LeftToeBase
				{
					OFFSET 0.04083 -0.34615 6.18044
					CHANNELS 3 Xrotation Yrotation Zrotation
					End Site
					{
						OFFSET 0.01735 0.60354 2.89036
					}
				}
			}
		}
	}
	JOINT RightUpLeg
	{
		OFFSET -4.29448 0.00000 0.00000
		CHANNELS 3 Xrotation Yrotation Zrotation
		JOINT RightLeg
		{
			OFFSET -0.00000 -19.20276 0.46564
			CHANNELS 3 Xrotation Yrotation Zrotation
			JOINT RightFoot
			{
				OFFSET 0.03510 -15.68217 0.03397
				CHANNELS 3 Xrotation Yrotation Zrotation
				JOINT RightToeBase
				{
					OFFSET -0.09359 -0.35473 6.17938
					CHANNELS 3 Xrotation Yrotation Zrotation
					End Site
					{
						OFFSET -0.06574 -1.30919 2.64583
					}
				}
			}
		}
	}
	JOINT Spine
	{
		OFFSET 0.00000 0.03937 0.00000
		CHANNELS 3 Xrotation Yrotation Zrotation
		JOINT Spine1
		{
			OFFSET 0.00000 8.13660 0.00000
			CHANNELS 3 Xrotation Yrotation Zrotation
			JOINT Neck
			{
				OFFSET -0.08254 7.72853 -1.10446
				CHANNELS 3 Xrotation Yrotation Zrotation
				JOINT Head
				{
					OFFSET 0.00000 7.64180 0.00000
					CHANNELS 3 Xrotation Yrotation Zrotation
					End Site
					{
						OFFSET 0.00000 4.52755 0.00000
					}
				}
			}
			JOINT LeftShoulder
			{
				OFFSET -0.08254 7.72853 -1.10446
				CHANNELS 3 Xrotation Yrotation Zrotation
				JOINT LeftArm
				{
					OFFSET 7.63573 -0.00003 0.00000
					CHANNELS 3 Xrotation Yrotation Zrotation
					JOINT LeftForeArm
					{
						OFFSET 10.90838 -0.00004 1.45735
						CHANNELS 3 Xrotation Yrotation Zrotation
						JOINT LeftHand
						{
							OFFSET 9.96262 -0.00004 0.00000
							CHANNELS 3 Xrotation Yrotation Zrotation
							JOINT LeftHandThumb
							{
								OFFSET 0.00000 0.00000 0.00000
								CHANNELS 3 Xrotation Yrotation Zrotation
								End Site
								{
									OFFSET -1.40617 0.22370 3.67051
								}
							}
							JOINT L_Wrist_End
							{
								OFFSET 3.67519 0.21920 1.39461
								CHANNELS 3 Xrotation Yrotation Zrotation
							}
						}
					}
				}
			}
			JOINT RightShoulder
			{
				OFFSET -0.08254 7.72853 -1.10446
				CHANNELS 3 Xrotation Yrotation Zrotation
				JOINT RightArm
				{
					OFFSET -7.63573 -0.00003 0.00000
					CHANNELS 3 Xrotation Yrotation Zrotation
					JOINT RightForeArm
					{
						OFFSET -10.90838 -0.00004 0.00000
						CHANNELS 3 Xrotation Yrotation Zrotation
						JOINT RightHand
						{
							OFFSET -9.96262 -0.00004 0.00000
							CHANNELS 3 Xrotation Yrotation Zrotation
							JOINT RightHandThumb
							{
								OFFSET 0.00000 0.00000 0.00000
								CHANNELS 3 Xrotation Yrotation Zrotation
								End Site
								{
									OFFSET 0.00000 0.00000 3.93700
								}
							}
							JOINT R_Wrist_End
							{
								OFFSET -5.39369 -0.00002 0.00000
								CHANNELS 3 Xrotation Yrotation Zrotation
							}
						}
					}
				}
			}
		}
	}
}
MOTION
Frames: 6
Frame Time: 0.008333
 13.2604 -92.4665 34.0444 -99.2241 2.5430 176.3897 8.3255 -6.8732 3.7296 -14.0999 0.0000 -0.0000 -5.8989 3.2275 -11.3329 23.6905 0.0212 -0.1601 3.9010 10.7448 -1.7773 -5.3395 -0.0000 -0.0000 -3.8841 -7.1096 8.4278 -27.1966 0.6688 -0.2228 -16.4610 0.6179 -2.9417 4.3660 0.1131 2.2377 22.8448 1.5822 -2.1711 -11.7677 0.7247 4.3303 -17.6347 4.8556 -2.4096 9.2208 8.4843 -73.6622 -0.0000 -1.3255 -0.0000 -0.5053 13.8112 -13.4846 -0.0000 0.0000 -0.0000 -0.0000 0.0000 -0.0000 -13.1949 -1.7128 6.8414 6.5481 -6.7474 72.0160 -0.0000 12.5551 0.0000 2.0158 -1.6300 20.6446 -0.0000 0.0000 -0.0000 -0.0000 0.0000 -0.0000
 13.2557 -92.4645 34.0426 -99.2358 2.5644 176.3974 8.2391 -6.9794 3.7198 -13.9156 0.0000 -0.0000 -6.0881 3.2762 -11.2486 23.6363 0.0212 -0.1598 3.8309 10.8805 -1.8114 -5.1783 0.0000 0.0000 -4.0231 -7.1221 8.4318 -27.2763 0.6709 -0.2229 -16.3908 0.5959 -2.9400 4.3813 0.1053 2.2233 22.7517 1.6319 -2.1807 -11.7885 0.7573 4.3083 -17.6422 4.9026 -2.3673 9.2324 8.4785 -73.7120 -0.0000 -1.5244 -0.0000 -0.8727 14.1443 -13.3752 -0.0000 0.0000 -0.0000 -0.0000 0.0000 -0.0000 -13.1773 -1.6547 6.8538 6.5609 -6.7224 72.0076 -0.0000 12.9198 0.0000 2.1359 -1.9803 20.9210 -0.0000 0.0000 -0.0000 -0.0000 0.0000 -0.0000
 13.2499 -92.4660 34.0452 -99.3448 2.6169 176.4784 8.0053 -7.0691 3.6335 -13.6573 0.0000 -0.0000 -6.2367 3.2981 -11.0007 23.8225 0.0211 -0.1610 3.6296 11.1078 -1.9144 -4.9195 0.0000 0.0000 -4.2452 -7.2271 8.5119 -27.2293 0.6696 -0.2228 -16.2830 0.5489 -2.9642 4.1549 0.1089 2.1526 22.7119 1.6845 -2.2102 -11.7006 0.7891 4.3230 -17.6315 5.0305 -2.3141 9.3020 8.3562 -73.6807 -0.0000 -1.6123 -0.0000 -0.5208 13.6542 -13.4676 -0.0000 0.0000 -0.0000 -0.0000 0.0000 -0.0000 -13.1651 -1.6188 6.9285 6.6089 -6.6166 71.9498 -0.0000 13.1328 0.0000 2.1912 -2.0384 21.2210 -0.0000 0.0000 -0.0000 -0.0000 0.0000 -0.0000
 13.2377 -92.4587 34.0460 -99.3585 2.6202 176.4786 7.8977 -7.2454 3.6211 -13.4052 0.0000 0.0000 -6.4886 3.3713 -10.9529 24.0333 0.0210 -0.1625 3.5874 11.2210 -1.9620 -4.7909 0.0000 0.0000 -4.3687 -7.2199 8.4907 -27.2427 0.6700 -0.2229 -16.2167 0.5611 -2.9432 4.1638 0.1290 2.1528 22.5853 1.6790 -2.2047 -11.6697 0.7818 4.2612 -17.6258 5.0116 -2.2759 9.3202 8.3420 -73.7719 -0.0000 -1.7894 -0.0000 -0.6131 13.7556 -13.1827 -0.0000 0.0000 -0.0000 -0.0000 0.0000 -0.0000 -13.1544 -1.6295 6.8776 6.6008 -6.6095 71.9653 -0.0001 13.4498 0.0000 1.9782 -2.4604 21.4932 -0.0000 0.0000 -0.0000 -0.0000 0.0000 -0.0000
 13.2259 -92.4621 34.0551 -99.5361 2.6145 176.6049 7.5318 -7.4218 3.4861 -13.0308 0.0000 -0.0000 -6.6940 3.3720 -10.6012 24.3444 0.0208 -0.1646 3.3378 11.4323 -2.1310 -4.5353 0.0000 -0.0000 -4.5919 -7.2879 8.5399 -27.1912 0.6686 -0.2227 -16.1038 0.5393 -3.0067 3.8585 0.1760 2.0610 22.5651 1.6417 -2.1692 -11.6424 0.8508 4.2658 -17.5855 5.0914 -2.2453 9.3787 8.2356 -73.7412 -0.0000 -1.9559 -0.0000 -0.5221 13.8335 -13.1201 -0.0000 0.0000 -0.0000 -0.0000 0.0000 -0.0000 -13.0843 -1.7654 6.9271 6.5704 -6.4469 71.8996 -0.0001 13.6359 0.0000 2.2638 -2.6398 21.7360 -0.0000 0.0000 -0.0000 -0.0000 0.0000 -0.0000
 13.2121 -92.4532 34.0618 -99.5442 2.6282 176.6050 7.3828 -7.4975 3.4524 -12.6904 0.0000 -0.0000 -6.9693 3.3614 -10.4891 24.7464 0.0206 -0.1674 3.2966 11.5504 -2.1693 -4.3850 -0.0000 -0.0000 -4.6702 -7.3388 8.6018 -27.2586 0.6704 -0.2229 -16.0288 0.5493 -2.9851 3.8982 0.1925 2.0646 22.3593 1.6734 -2.1699 -11.5026 0.8421 4.2141 -17.5596 5.0380 -2.2122 9.4457 8.2389 -73.8412 -0.0000 -2.1897 -0.0000 -0.9908 14.1591 -12.7099 -0.0000 0.0000 -0.0000 -0.0000 0.0000 -0.0000 -13.0693 -1.7613 6.8866 6.5389 -6.4425 71.9112 -0.0001 14.0058 0.0000 2.1064 -2.9285 21.9457 -0.0000 0.0000 -0.0000 -0.0000 0.0000 -0.0000
